<svg width="18" height="18" viewBox="0 0 18 18" fill="none" xmlns="http://www.w3.org/2000/svg">
<path d="M15.7501 5.36251C15.5223 5.25991 15.2692 5.22653 15.0226 5.26654C14.7759 5.30654 14.5464 5.41815 14.3626 5.58751L12.7501 7.08751V6.00001C12.7501 5.40327 12.5131 4.83097 12.0911 4.40902C11.6692 3.98706 11.0969 3.75001 10.5001 3.75001H3.75012C3.15339 3.75001 2.58109 3.98706 2.15913 4.40902C1.73718 4.83097 1.50012 5.40327 1.50012 6.00001V12C1.50012 12.5967 1.73718 13.169 2.15913 13.591C2.58109 14.013 3.15339 14.25 3.75012 14.25H10.5001C11.0969 14.25 11.6692 14.013 12.0911 13.591C12.5131 13.169 12.7501 12.5967 12.7501 12V10.9125L14.3701 12.4125C14.6086 12.6284 14.9184 12.7486 15.2401 12.75C15.4186 12.7496 15.595 12.7112 15.7576 12.6375C15.9788 12.548 16.1683 12.3946 16.3019 12.1969C16.4355 11.9992 16.5071 11.7661 16.5076 11.5275V6.47251C16.5065 6.23302 16.4338 5.99934 16.2988 5.80153C16.1638 5.60371 15.9727 5.45082 15.7501 5.36251Z" fill="#F57E71"/>
</svg>
