<svg width="21" height="38" viewBox="0 0 21 38" fill="none" xmlns="http://www.w3.org/2000/svg">
<path d="M2.68136 12.9447C2.68136 16.3992 0.786759 16.4889 0.920182 18.7765C1.07059 21.3091 3.0501 21.314 3.0501 23.0557C3.0501 24.7975 1.23069 26.7479 2.84147 28.6231C9.93471 28.6231 10.6261 28.6231 10.6261 28.6231V7.50107L2.68136 12.9447Z" fill="#461811"/>
<path d="M18.5659 12.9447C18.5659 16.3992 20.4606 16.4889 20.3271 18.7765C20.1767 21.3091 18.1972 21.314 18.1972 23.0557C18.1972 24.7975 20.0166 26.7479 18.4058 28.6231C11.3126 28.6231 10.6212 28.6231 10.6212 28.6231V7.50107L18.5659 12.9447Z" fill="#461811"/>
<path d="M19.6867 9.37384C19.6867 4.38868 15.6452 0.349609 10.6625 0.349609C5.67732 0.349609 1.63824 4.39111 1.63824 9.37384C1.63824 14.359 5.67974 18.3981 10.6625 18.3981C15.6476 18.3981 19.6867 14.359 19.6867 9.37384Z" fill="#461811"/>
<path d="M13.6827 28.7007L10.6237 37.2762L7.64473 28.7007V22.0781H13.6827V28.7007Z" fill="#EAC8AD"/>
<path d="M10.6625 3.72641C7.7296 3.72641 3.09377 5.39298 3.09377 13.2043C3.09377 17.714 4.85252 19.839 5.49295 20.6565C6.08244 21.4086 9.10749 23.8393 10.6625 23.8393C10.6625 15.9455 10.6625 3.72641 10.6625 3.72641Z" fill="#F2D7BC"/>
<path d="M1.63585 15.0674C1.50728 13.8205 2.10161 12.7118 2.9628 12.593C3.82641 12.4741 4.62937 13.3911 4.76037 14.638C4.88894 15.8849 4.2946 16.9935 3.43099 17.1124C2.56981 17.2288 1.76442 16.3143 1.63585 15.0674Z" fill="#F2D7BC"/>
<path d="M10.6382 3.72641C13.5711 3.72641 18.2069 5.39298 18.2069 13.2043C18.2069 17.714 16.4482 19.839 15.8077 20.6565C15.2183 21.4086 12.1932 23.8393 10.6382 23.8393C10.6382 15.9455 10.6382 3.72641 10.6382 3.72641Z" fill="#EAC0A7"/>
<path d="M19.6891 15.0674C19.8177 13.8205 19.2234 12.7118 18.3622 12.593C17.4986 12.4741 16.6956 13.3911 16.567 14.638C16.4385 15.8849 17.0328 16.9935 17.894 17.1124C18.7576 17.2288 19.5606 16.3143 19.6891 15.0674Z" fill="#EAC0A7"/>
<path d="M10.6236 37.2762V29.0282C10.6236 29.0282 8.37002 28.4703 7.87514 26.646C7.6374 25.7678 7.64225 25.0643 7.64225 25.0643C7.64225 25.0643 2.71532 26.7285 1.6164 28.446C0.701845 31.1702 0.449554 37.2762 0.449554 37.2762H10.6236Z" fill="#EAC8AD"/>
<path d="M10.6236 37.2762V29.0282C10.6236 29.0282 12.8773 28.4703 13.3721 26.646C13.6099 25.7678 13.605 25.0643 13.605 25.0643C13.605 25.0643 18.532 26.7285 19.6309 28.446C20.5454 31.1702 20.7977 37.2762 20.7977 37.2762H10.6236Z" fill="#EAC8AD"/>
<path d="M10.6625 21.0884C11.8051 21.0884 12.7317 20.3873 12.7317 19.5212H8.5932C8.5932 20.3873 9.51988 21.0884 10.6625 21.0884Z" fill="white"/>
<path d="M10.6237 34.0522C10.6237 34.0522 8.45495 28.6231 7.64228 25.0668C6.81991 25.3846 6.14795 25.5835 5.63367 25.8503C3.19567 30.9835 3.09135 37.2786 3.09135 37.2786H10.6213V34.0522H10.6237Z" fill="#EB1A3A"/>
<path d="M10.6577 34.0522C10.6577 34.0522 12.8264 28.6231 13.6391 25.0668C14.4614 25.3846 15.1334 25.5835 15.6477 25.8503C18.0857 30.9835 18.19 37.2786 18.19 37.2786H10.6577V34.0522Z" fill="#C5132D"/>
<path d="M10.2355 1.48004C4.87918 1.48004 3.249 6.1741 3.249 8.33555C1.30588 11.0355 3.42366 13.4517 4.92285 14.3008C4.92285 13.7986 4.92285 13.6142 4.92285 12.9714C4.92285 11.2248 6.58457 9.6067 9.07836 9.87597C11.3126 10.1161 12.722 8.85468 13.9107 6.70536C15.3783 3.83071 13.5468 1.48004 10.2355 1.48004Z" fill="#461811"/>
<path d="M13.6827 5.8248C13.6827 5.8248 14.9345 10.907 18.3622 12.593C18.9735 8.02506 19.3326 8.98571 18.3622 6.58167C17.3919 4.17521 13.6827 2.38977 13.6827 2.38977V5.8248Z" fill="#461811"/>
</svg>
